<?xml version="1.0" encoding="UTF-8" standalone="no"?>
<!-- Created with Inkscape (http://www.inkscape.org/) -->

<svg width="1000" height="1000" viewBox="0 0 1000 1000" version="1.1" id="svg1" xml:space="preserve"
  xmlns:xlink="http://www.w3.org/1999/xlink" xmlns="http://www.w3.org/2000/svg" xmlns:svg="http://www.w3.org/2000/svg">
  <defs>
    <!-- <path id="arm" stroke="none"
      d="m 494,47 c -186,55 -369,166 -366,376 3,177 107,278 201,293 145,23 150,-105 105,-171 -56,-81 61,-181 135,-88 c 96,121 21,381 -255,321 C 190,752 82,623 94,426 107,204 300,88 494,47 z"
    /> -->
    <path id="arm" stroke="none"
      d="m 549,518
      c -14,125 -114,205 -231,178
      C 192,667 76,541 95,267
      c 19,305 152,359 220,370 85,13 131,-39 137,-136 4,-74 104,-64 95,15
      z"
    />
    <g id="dual-arm">
      <use href="#arm" />
      <use href="#arm" transform="rotate(180, 500, 500)" />
    </g>
    <g id="galaxy" transform="scale(-1, 1) translate(-1000, 0)">
      <use href="#dual-arm" fill="#F0B057" transform="rotate(0, 500, 500)" />
      <use href="#dual-arm" fill="#E7883B" transform="rotate(35, 500, 500)" />
      <use href="#dual-arm" fill="#B8610A" transform="rotate(70, 500, 500)" />
    </g>
    <g id="star">
      <path 
        d="M 500,210 L 520,480 L 690,500 L 520,520 L 500,790 L 480,520 L 310,500 L 480,480 Z" />
      <path
        transform="rotate(45, 500, 500)"
        d="M 500,360 L 520,480 L 650,500 L 520,520 L 500,650 L 480,520 L 360,500 L 480,480 Z" />
    </g>
    <g id="star-outlined">
      <use href="#star" fill="white" transform="translate(500, 500) scale(1.5) translate(-500, -500)" />
      <use href="#star" fill="#B8610A" transform="translate(500, 500) scale(1.2) translate(-500, -500)"/>
      <!-- <use href="#star" fill="#B8610A" transform="translate(500, 500) scale(2) translate(-500, -500)" /> -->
      <!-- <use href="#star" fill="#FEF0D0" transform="translate(500, 500) scale(1.5) translate(-500, -500)"/> -->
    </g>
  </defs>
  <!-- <rect width="1000" height="1000" fill="white" /> -->
  <g id="main">
    <!-- <use href="#galaxy" transform="translate(200, 100) scale(0.9)" /> -->
    <use href="#galaxy"  />
    <!-- <use href="#galaxy" transform="scale(.1, .2) skewX(45) translate(100, 0)"/>
    <use href="#galaxy" transform="scale(.05, .2) translate(18000, 500)"/>
    <use href="#galaxy" transform="scale(.15, .2) skewX(60) translate(-3900, 3900)"/> -->
    <!-- <use href="#star-outlined" transform="translate(-200, -20)" /> -->
  </g>
</svg>