<svg xmlns="http://www.w3.org/2000/svg" width="24" height="24" viewBox="0 0 24 24" fill="none" stroke="currentColor" stroke-width="2" stroke-linecap="round" stroke-linejoin="round">
  <!-- Top: two nodes (DOs/Workers in the cloud) -->
  <rect x="2" y="2" width="6" height="6" rx="1" />
  <rect x="16" y="2" width="6" height="6" rx="1" />
  <!-- Horizontal bar connecting top nodes, vertical stem down -->
  <path d="M5 8v3a1 1 0 0 0 1 1h12a1 1 0 0 0 1-1V8" />
  <path d="M12 12v4" />
  <!-- Bottom: three nodes (clients — browser, Node, Bun) -->
  <rect x="1" y="16" width="5" height="5" rx="1" />
  <rect x="9.5" y="16" width="5" height="5" rx="1" />
  <rect x="18" y="16" width="5" height="5" rx="1" />
  <!-- Branches from stem to three bottom nodes -->
  <path d="M3.5 16v-2a1 1 0 0 1 1-1h15a1 1 0 0 1 1 1v2" />
</svg>
