<?xml version="1.0" encoding="UTF-8" standalone="no"?>
<!-- Created with Inkscape (http://www.inkscape.org/) -->

<svg width="1000" height="1000" viewBox="0 0 1000 1000" version="1.1" id="svg1" xml:space="preserve"
  xmlns:xlink="http://www.w3.org/1999/xlink" xmlns="http://www.w3.org/2000/svg" xmlns:svg="http://www.w3.org/2000/svg">
  <defs>
    <path 
      id="arm"
      stroke="none"
      d="m 494,47 c -186,55 -369,166 -366,376 3,177 107,278 201,293 145,23 150,-105 105,-171 -56,-81 61,-181 135,-88 c 96,121 21,381 -255,321 C 190,752 82,623 94,426 107,204 300,88 494,47 z"
    />
    <g id="dual-arm">
      <use href="#arm" />
      <use href="#arm" transform="rotate(180, 500, 500)" />
    </g>
    <g id="star">
      <path 
        d="M 500,210 L 520,480 L 690,500 L 520,520 L 500,790 L 480,520 L 310,500 L 480,480 Z" />
      </path>
      <path
        transform="rotate(45, 500, 500)"
        d="M 500,360 L 520,480 L 650,500 L 520,520 L 500,650 L 480,520 L 360,500 L 480,480 Z" />
      </path>
    </g>
    <mask id="star-mask">
      <rect x="0" y="0" width="1000" height="1000" fill="white" />
      <use href="#star" fill="black" />
    </mask>
  </defs>
  <g id="layer1" transform="scale(-1, 1) translate(-1000, 0)" mask="url(#star-mask)">
    <use href="#dual-arm" fill="#F0B057" />
    <use href="#dual-arm" fill="#FEF0D0" transform="rotate(90, 500, 500)" />
    <circle 
      id="center"
      display="none"
      fill="#c9c9c9"
      stroke="none"
      cx="500"
      cy="500"
      r="80" />
  </g>
  <use href="#star" fill="white" transform="scale(0.8)" transform-origin="500 500"/>
</svg>